<?xml version="1.0" encoding="UTF-8" standalone="no"?>
<svg
   xmlns:dc="http://purl.org/dc/elements/1.1/"
   xmlns:cc="http://creativecommons.org/ns#"
   xmlns:rdf="http://www.w3.org/1999/02/22-rdf-syntax-ns#"
   xmlns:svg="http://www.w3.org/2000/svg"
   xmlns="http://www.w3.org/2000/svg"
   xmlns:xlink="http://www.w3.org/1999/xlink"
   xmlns:sodipodi="http://sodipodi.sourceforge.net/DTD/sodipodi-0.dtd"
   xmlns:inkscape="http://www.inkscape.org/namespaces/inkscape"
   version="1.1"
   id="Layer_1"
   x="0px"
   y="0px"
   viewBox="0 0 4669.16 5000"
   enable-background="new 0 0 4669.16 5000"
   xml:space="preserve"
   inkscape:version="0.91 r13725"
   sodipodi:docname="young-woman-sitting-at-computer-desk.svg"><metadata
     id="metadata11748"><rdf:RDF><cc:Work
         rdf:about=""><dc:format>image/svg+xml</dc:format><dc:type
           rdf:resource="http://purl.org/dc/dcmitype/StillImage" /><dc:title></dc:title><cc:license
           rdf:resource="http://creativecommons.org/publicdomain/zero/1.0/" /></cc:Work><cc:License
         rdf:about="http://creativecommons.org/publicdomain/zero/1.0/"><cc:permits
           rdf:resource="http://creativecommons.org/ns#Reproduction" /><cc:permits
           rdf:resource="http://creativecommons.org/ns#Distribution" /><cc:permits
           rdf:resource="http://creativecommons.org/ns#DerivativeWorks" /></cc:License></rdf:RDF></metadata><defs
     id="defs11746" /><sodipodi:namedview
     pagecolor="#ffffff"
     bordercolor="#666666"
     borderopacity="1"
     objecttolerance="10"
     gridtolerance="10"
     guidetolerance="10"
     inkscape:pageopacity="0"
     inkscape:pageshadow="2"
     inkscape:window-width="1916"
     inkscape:window-height="1035"
     id="namedview11744"
     showgrid="false"
     inkscape:zoom="0.072572935"
     inkscape:cx="3985.5109"
     inkscape:cy="4298.3373"
     inkscape:window-x="4"
     inkscape:window-y="1"
     inkscape:window-maximized="1"
     inkscape:current-layer="Layer_1" /><g
     id="g13494"><path
       d="m 2732.0784,814.49801 c 8.655,98.9 75.337,173.853 148.956,167.402 73.619,-6.451 126.284,-91.855 117.637,-190.755 -8.654,-98.9 -75.344,-173.846 -148.956,-167.395 -73.619,6.443 -126.284,91.848 -117.637,190.748 z"
       id="path11511"
       style="fill:#c01f1f;fill-opacity:1"
       inkscape:connector-curvature="0" /><path
       sodipodi:nodetypes="ccccc"
       d="m 3573.393,622.46 c 0,0 -88.6092,411.493 9.5668,617.535 -120.13,57.376 -322.4018,140.254 -373.7108,28.735 0,0 -50.4255,-64.253 -79.9535,-242.991 z"
       id="path11581"
       inkscape:connector-curvature="0"
       style="fill:#ec9458" /><g
       id="chair_15_"><path
         style="fill:#8090be"
         inkscape:connector-curvature="0"
         id="path11469"
         d="m 3691.058,3608.206 c 0,0 77.17,0 180.296,0 103.126,0 118.623,-95.595 118.623,-95.595 l 0,-405.582 -180.297,0 0,405.582 -118.622,0 0,95.595 z" /><path
         style="fill:#616f95"
         inkscape:connector-curvature="0"
         id="path11471"
         d="m 3809.68,3107.021 0,405.589 -118.615,0 0,95.595 c 0,0 77.163,0 180.289,0 16.098,0 29.406,-2.863 41.503,-6.799 -60.377,-23.237 -69.024,-82.28 -69.024,-82.28 l 0,-412.105 -34.153,0 z" /><g
         id="g11473"><path
           style="fill:#323249"
           inkscape:connector-curvature="0"
           id="path11475"
           d="m 3380.086,2386.807 c -31.696,590.517 225.155,823.5 557.422,823.5 332.26,0 614.124,-232.983 645.813,-823.5 31.689,-590.517 -198.786,-1314.95 -531.046,-1314.95 -332.268,-10e-4 -640.501,724.432 -672.189,1314.95 z" /><path
           style="fill:#3e3e5b"
           inkscape:connector-curvature="0"
           id="path11477"
           d="m 3320.202,2378.638 c -30.638,570.882 217.675,796.124 538.889,796.124 321.221,0 593.706,-225.242 624.344,-796.124 30.639,-570.889 -192.176,-1271.237 -513.397,-1271.237 -321.215,0 -619.198,700.348 -649.836,1271.237 z" /><path
           style="fill:#323249"
           inkscape:connector-curvature="0"
           id="path11479"
           d="m 4107.802,1207.758 c 0,0 -1.08,-0.5 -3.088,-1.37 -8.27,-3.892 -66.9,-28.913 -176.448,-46.453 l -0.014,-0.01 c -21.578,-3.457 -44.083,-6.603 -69.604,-9.14 l 0.225,-0.406 c 0,0 -8.328,-1.174 -21.838,-2.682 -266.418,154.892 -490.493,740.132 -516.833,1230.937 -30.638,570.882 217.668,796.124 538.889,796.124 90.791,0 177.375,-18.751 256.017,-57.448 0.87,-3.153 1.791,-6.233 2.646,-9.415 2.906,2.03 4.552,3.218 6.784,4.798 8.813,-4.566 17.555,-9.278 26.144,-14.373 68.806,-120.463 96.632,-521.885 83.833,-926.568 l 36.421,13.358 c 50.866,-356.062 83.563,-887.986 -163.134,-977.355 z" /></g><rect
         style="fill:#8090be"
         id="rect11481"
         height="92.732002"
         width="1338.941"
         transform="matrix(0,1,-1,0,7481.5679,973.8043)"
         y="4181.3198"
         x="2584.4109" /><rect
         style="fill:#616f95"
         id="rect11483"
         height="33.884998"
         width="1338.941"
         transform="matrix(0,1,-1,0,7510.9917,944.3806)"
         y="4210.7441"
         x="2613.835" /><polygon
         style="fill:#616f95"
         id="polygon11485"
         points="3203.123,3927.18 3129.41,3579.822 3378.361,3579.822 3304.647,3927.18 " /><polygon
         style="fill:#8090be"
         id="polygon11487"
         points="3356.37,4880.479 3775.114,4950.358 3775.114,4978.944 2732.656,4978.944 2732.656,4950.358 3151.408,4880.479 " /><polygon
         style="fill:#8090be"
         id="polygon11489"
         points="3380.789,4888.423 3126.982,4888.423 3174.117,4592.244 3333.654,4592.244 " /><polygon
         style="fill:#616f95"
         id="polygon11491"
         points="3080.138,4950.358 3203.123,4897.157 3236.313,4618.46 3174.117,4592.244 3333.654,4592.244 3380.151,4884.451 3775.114,4950.358 " /><g
         id="g11493"><path
           style="fill:#3e3e5b"
           inkscape:connector-curvature="0"
           id="path11495"
           d="m 2532.834,3496.599 1442.104,0 0,0 c 0,-72.394 -58.687,-131.082 -131.082,-131.082 l -1179.948,0 c -72.393,0 -131.074,58.688 -131.074,131.082 l 0,0 z" /><path
           style="fill:#323249"
           inkscape:connector-curvature="0"
           id="path11497"
           d="m 2673.867,3365.517 606.463,0 c -77.895,0 -141.041,58.688 -141.041,131.075 l -606.456,0 c 10e-4,-72.387 63.146,-131.075 141.034,-131.075 z" /><path
           style="fill:#323249"
           inkscape:connector-curvature="0"
           id="path11499"
           d="m 3972.64,3473.659 c 1.42,7.458 2.297,15.098 2.297,22.933 l -1442.103,0 c 0,-7.835 0.877,-15.475 2.291,-22.933 l 1437.515,0 z" /><rect
           style="fill:#3e3e5b"
           id="rect11501"
           height="176.955"
           width="1554.9351"
           transform="matrix(-1,0,0,-1,6507.7651,7159.6582)"
           y="3491.3521"
           x="2476.415" /><rect
           style="fill:#323249"
           id="rect11503"
           height="176.955"
           width="1004.89"
           transform="matrix(-1,0,0,-1,5957.7207,7159.6582)"
           y="3491.3521"
           x="2476.415" /></g><path
         style="fill:#323749"
         inkscape:connector-curvature="0"
         id="path11505"
         d="m 3456.06,3860.222 c -9.879,0 -18.272,-1.015 -24.586,-3.334 -51.302,-18.686 -40.763,-178.55 -39.334,-196.706 0.296,-4.044 3.688,-7.139 7.675,-7.139 0.181,0 0.355,0 0.594,0.058 4.226,0.297 7.444,3.986 7.081,8.277 -4.82,64.095 -1.131,169.917 29.225,180.992 36.725,13.032 175.99,-29.58 226.64,-47.258 4.11,-1.37 8.451,0.833 9.886,4.762 1.363,4.044 -0.775,8.451 -4.762,9.879 -16.669,5.77 -146.831,50.469 -212.419,50.469 z" /><path
         style="fill:#323749"
         inkscape:connector-curvature="0"
         id="path11507"
         d="m 3707.265,3741.875 c -33.762,8.922 -83.716,44.88 -76.779,71.118 6.936,26.238 68.132,32.812 101.886,23.897 33.754,-8.923 55.499,-37.429 48.57,-63.667 -6.937,-26.231 -39.923,-40.27 -73.677,-31.348 z" /></g><g
       id="g11513"><path
         d="m 2944.46,1385.409 c -59.652,19.563 -90.978,228.968 -154,540.208 -21.418,105.808 -81.882,306.725 -81.882,306.725 -22.832,187.922 -11.648,325.737 81.882,340.313 288.141,44.895 498.967,-1300.381 154,-1187.246 z"
         id="path11515"
         inkscape:connector-curvature="0"
         style="fill:#ec9458" /><path
         d="m 2790.46,2572.655 c -271.108,-32.95 -515.101,-386.715 -728.746,-400.769 l 43.989,-95.414 c 132.205,-13.561 494.8,127.001 602.911,155.87 166.598,56.84 134.467,346.706 81.846,340.313 z"
         id="path11517"
         inkscape:connector-curvature="0"
         style="fill:#ec9458" /><g
         id="g11519"><path
           d="m 1871.88,2175.082 c 0,0 0.239,55.434 5.371,68.988 6.161,16.25 61.964,90.188 78.584,84.208 23.926,-8.611 -9.575,-49.772 -9.575,-49.772 l 98.85,-115.636 -173.23,12.212 z"
           id="path11521"
           inkscape:connector-curvature="0"
           style="fill:#d87238" /><path
           d="m 2157.172,2076.233 c -67.915,-3.247 -136.192,8.625 -188.255,19.461 -45.301,9.423 -78.693,17.062 -84.339,25.963 -11.575,18.287 -12.699,53.426 -12.699,53.426 0,0 -26.709,19.048 -52.585,34.733 -30.862,18.708 -69.646,37.089 -60.884,48.896 16.526,22.237 109.707,-37.755 153.58,-54.527 54.615,-20.875 76.649,-27.086 85.636,-19.157 10.851,9.567 -12.865,44.837 -24.882,56.789 -12.018,11.952 -44.033,37.031 -27.297,51.454 16.743,14.431 51.361,-23.353 74.663,-42.22 23.303,-18.874 117.05,-52.977 129.561,-94.958 3.117,-10.46 36.464,-78.483 7.501,-79.86 z"
           id="path11523"
           inkscape:connector-curvature="0"
           style="fill:#ec9458" /></g></g><g
       id="g11525"><g
         id="g11527"><g
           id="g11529"><path
             d="m 2306.099,4831.648 c 0,0 -37.683,62.805 -128.958,100.48 -91.276,37.683 -151.015,29.239 -143.477,54.39 7.538,25.158 365.833,12.532 361.97,-16.743 -3.863,-29.275 -26.188,-71.14 -30.92,-138.127 -4.733,-66.979 -58.615,0 -58.615,0 z"
             id="path11531"
             inkscape:connector-curvature="0"
             style="fill:#ec9458" /></g><path
           d="m 2364.714,4831.648 c -4.74,-66.987 -58.615,0 -58.615,0 0,0 -11.119,17.954 -34.914,40.314 40.256,8.741 70.64,27.876 81.904,57.535 6.712,17.678 5.74,37.125 -0.942,56.97 26.876,-4.617 44.344,-10.212 43.489,-16.692 -3.865,-29.275 -26.189,-71.14 -30.922,-138.127 z"
           id="path11533"
           inkscape:connector-curvature="0"
           style="fill:#d87238" /></g><g
         id="g11535"><g
           id="g11537"><path
             d="m 2938.452,4797.764 c 0,0 5.117,75.438 -98.689,120.703 -103.801,45.264 -111.201,35.124 -106.077,65.341 5.132,30.217 285.894,15.047 285.263,-20.113 -0.638,-35.168 -19.801,-85.462 -16.779,-165.931 3.015,-80.469 -63.718,0 -63.718,0 z"
             id="path11539"
             inkscape:connector-curvature="0"
             style="fill:#fab276" /></g><path
           d="m 3000.539,4831.648 c -4.74,-66.987 -58.615,0 -58.615,0 0,0 -11.119,17.954 -34.914,40.314 40.256,8.741 70.64,27.876 81.904,57.535 6.712,17.678 5.741,37.125 -0.942,56.97 26.883,-4.617 44.344,-10.212 43.489,-16.692 -3.865,-29.275 -26.182,-71.14 -30.922,-138.127 z"
           id="path11541"
           inkscape:connector-curvature="0"
           style="fill:#ec9458" /></g><polygon
         points="2958.739,2757.322 4037.517,2766.824 3019.008,3018.515 "
         id="polygon11543"
         style="fill:#2a2e3d" /><path
         d="m 2886.961,2785.829 c 343.35,-110.062 549.465,1.131 552.233,478.447 l -1368.745,-17.569 c 0,0 -45.381,-196.931 116.628,-288.322 83.426,-47.062 453.848,-132.836 699.884,-172.556 z"
         id="path11545"
         inkscape:connector-curvature="0"
         style="fill:#698eaf;fill-opacity:1" /><path
         d="m 3019.008,3018.515 c 0,0 -140.259,52.418 -353.237,85.694 -212.993,33.283 -278.805,36.038 -291.946,72.93 -13.126,36.893 72.162,546.275 77.844,706.016 4.9,137.873 -95.21,752.505 -115.505,950.545 l 69.168,0 c 0,0 187.088,-668.058 164.691,-1003.224 -18.338,-274.312 -55.977,-464.458 -55.977,-464.458 l 401.531,0 c 86.76,-21.701 103.431,-347.503 103.431,-347.503 z"
         id="path11547"
         inkscape:connector-curvature="0"
         style="fill:#456683;fill-opacity:1" /><path
         d="m 2582.745,3268.386 c 5.225,33.58 10.248,66.001 15.162,97.632 l 317.671,0 c 28.158,-7.045 48.562,-46.83 63.761,-96.429 -0.123,-0.449 -0.261,-0.993 -0.384,-1.435 l 0.863,0 c 1.015,-3.356 2.226,-6.299 3.197,-9.734 l 456.181,5.849 c -1.348,-232.99 -51.469,-378.206 -142.034,-453.579 -377.894,0.029 -597.149,71.626 -666.274,134.459 -100.867,91.703 -48.143,323.237 -48.143,323.237 z"
         id="path11549"
         inkscape:connector-curvature="0"
         style="fill:#456683;fill-opacity:1" /><path
         d="m 4010.214,2774.631 c 0,0 -13.735,346.322 -123.776,493.03 l -1221.943,0.725 c 0,0 -52.723,-231.533 48.142,-323.229 120.036,-109.12 903.28,-161.357 1297.577,-170.526 z"
         id="path11551"
         inkscape:connector-curvature="0"
         style="fill:#698eaf;fill-opacity:1" /><path
         d="m 3158.468,2827.121 c 0,0 91.362,-10.908 134.387,-19.099 111.961,-21.31 297.549,-19.266 690.331,260.178 l -72.061,139.374 c 0,0 -514.419,-364.442 -752.657,-380.453 z"
         id="path11553"
         inkscape:connector-curvature="0"
         style="fill:#456683;fill-opacity:1" /><path
         sodipodi:nodetypes="cccccccscccc"
         d="m 3163.542,3784.595 c -9.625,-247.827 -57.985,-418.578 -57.985,-418.578 l 705.6005,3.7798 C 3954.8935,3254.8058 3954.534,3170.753 3983.186,3068.2 l -305.645,-142.933 c 0,0 -31.319,148.202 -91.218,181.485 -59.906,33.276 -653.822,33.907 -679.328,60.688 -25.506,26.782 108.294,443.533 135.793,633.223 27.499,189.69 -62.892,1032.977 -62.892,1032.977 l 0.109,0.058 73.373,0 c 0,0 127.153,-794.651 110.164,-1049.103 z"
         id="path11555"
         inkscape:connector-curvature="0"
         style="fill:#456683;fill-opacity:1" /><path
         d="m 2070.449,3246.707 c 152.992,883.638 185.63,1586.993 185.63,1586.993 l 151.391,0 c 0,0 149.304,-748.765 122.218,-1003.224 -27.087,-254.459 -59.579,-688.178 -59.579,-688.178 l -399.66,104.409 z"
         id="path11557"
         inkscape:connector-curvature="0"
         style="fill:#698eaf;fill-opacity:1" /><path
         d="m 2664.495,3268.386 c 176.107,1132.754 169.374,1133.907 216.957,1565.314 l 171.925,0 c 0,0 127.153,-794.653 110.171,-1049.104 -16.99,-254.459 -139.693,-642.298 -139.693,-642.298 l -359.36,126.088 z"
         id="path11559"
         inkscape:connector-curvature="0"
         style="fill:#698eaf;fill-opacity:1" /><path
         sodipodi:nodetypes="ccccccccccc"
         d="m 3163.542,3784.595 c -0.01,-0.159 -0.014,-0.275 -0.029,-0.435 -15.271,-227.25 -116.629,-591.445 -135.873,-633.672 -11.458,0.747 -22.382,1.515 -32.616,2.327 l -91.087,20.6187 c 5.038,68.313 114.534,459.4953 138.852,627.2313 27.507,189.69 -62.892,1032.977 -62.892,1032.977 l 0.109,0.065 73.38,0 c 0,0 7.3,-54.165 17.997,-139.374 32.072,-255.64 104.901,-718.895 92.159,-909.738 z"
         id="path11561"
         inkscape:connector-curvature="0"
         style="fill:#456683;fill-opacity:1" /><path
         d="m 2470.109,3142.298 c -38.967,2.646 -105.301,8.183 -127.074,28.456 -22.128,36.893 105.097,552.66 110.78,712.401 4.9,137.873 -95.218,752.505 -115.513,950.552 l 69.176,0 c 38.423,-207.441 170.338,-638.978 164.568,-968.397 -2.841,-162.589 -66.871,-595.178 -101.937,-723.012 z"
         id="path11563"
         inkscape:connector-curvature="0"
         style="fill:#456683;fill-opacity:1" /><path
         d="m 2886.961,2785.829 c 0,0 114.245,-4.443 148.651,56.912 l 305.196,-36.335 c 0,0 -324.548,-81.128 -453.847,-20.577 z"
         id="path11565"
         inkscape:connector-curvature="0"
         style="fill:#456683;fill-opacity:1" /></g><path
       d="m 2916.592,1393.266 c -136.844,95.871 -211.094,685.018 -211.094,685.018 l 256.438,50.824 32.979,-147.644 c 0,0 18.599,-192.85 0.602,-343.255 -18.005,-150.406 -78.925,-244.943 -78.925,-244.943 z"
       id="path11573"
       style="fill:#f7e4ea;fill-opacity:1"
       inkscape:connector-curvature="0" /><path
       d="m 3989.781,3120.256 c 145.563,-152.341 135.822,-1447.438 -27.311,-1831.109 0,0 -199.504,-99.132 -603.962,-50.853 -298.709,35.661 -441.816,154.348 -441.816,154.348 -67,149.325 13.59,531.858 72.974,931.787 59.587,401.305 -102.706,461.399 -102.706,461.399 0,0 221.321,-30.29 548.312,64.175 313.648,90.609 554.509,270.253 554.509,270.253 z"
       id="path11575"
       style="fill:#f7e4ea;fill-opacity:1"
       inkscape:connector-curvature="0" /><path
       d="m 3755.726,1237.331 c -97.762,-13.242 -228.634,-19.164 -397.217,0.964 -120.979,14.438 -215.146,42.467 -285.909,70.749 31.145,58.304 126.697,197.511 324.403,182.109 201.258,-15.686 320.315,-188.039 358.723,-253.822 z"
       id="path11577"
       style="fill:#e3c5d6;fill-opacity:1"
       inkscape:connector-curvature="0" /><path
       d="m 3116.501,1292.373 c 0,0 73.525,176.984 283.35,160.632 209.825,-16.352 313.69,-221.226 313.69,-221.226 0,0 -313.595,-48.266 -597.04,60.594 z"
       id="path11583"
       inkscape:connector-curvature="0"
       style="fill:#ec9458" /><path
       d="m 3962.47,1289.147 c 0,0 -60.993,-28.84 -179.564,-47.83 -6.878,136.779 -55.332,751.99 -374.879,882.028 -238.578,97.081 -400.204,-28.028 -464.567,-94.327 14.954,95.073 31.247,194.677 46.207,295.411 59.587,401.305 -102.706,461.392 -102.706,461.392 0,0 221.321,-30.283 548.312,64.182 313.647,90.608 554.509,270.253 554.509,270.253 145.563,-152.34 135.822,-1447.438 -27.312,-1831.109 z"
       id="path11579"
       style="fill:#e3c5d6;fill-opacity:1"
       inkscape:connector-curvature="0" /><g
       transform="matrix(0.56919199,0,0,0.56355934,2887.3858,4.6742855)"
       id="g12603"><g
         id="g12605"><g
           id="g12607"><radialGradient
             gradientTransform="translate(-1034.5892,228.20299)"
             id="SVGID_1_"
             cx="1814.8049"
             cy="133.3004"
             r="2957.2039"
             gradientUnits="userSpaceOnUse"><stop
               offset="0"
               style="stop-color:#DF7B32"
               id="stop12610" /><stop
               offset="0.1744"
               style="stop-color:#D77631"
               id="stop12612" /><stop
               offset="0.6137"
               style="stop-color:#CA6D2E"
               id="stop12614" /><stop
               offset="1"
               style="stop-color:#C56A2D"
               id="stop12616" /></radialGradient><path
             style="fill:url(#SVGID_1_)"
             inkscape:connector-curvature="0"
             d="m 1240.0218,2845.567 c 0,0 65.365,71.236 70.877,169.608 5.479,98.373 -54.597,202.128 -54.597,202.128 0,0 -103.759,-71.431 -120.23,-169.608 -16.472,-98.145 16.243,-185.852 16.243,-185.852 l 87.707,-16.276 z"
             id="path12618" /><path
             sodipodi:nodetypes="cccccccsc"
             style="fill:url(#SVGID_2_)"
             inkscape:connector-curvature="0"
             d="m 1305.0918,1593.334 c 87.414,79.944 84.119,438.731 -52.513,548.194 97.166,134.643 70.453,289.639 -42.5,407.484 0,0 126.978,178.643 6.756,340.88 l -110.2494,-69.2588 c 0,0 -175.87059,-48.6192 -77.5636,-232.0252 0,0 -192.47299,-170.554 -95.14399,-404.777 0,0 -220.752,-133.11 -166.999,-366.746 53.753,-233.634 538.21299,-223.751 538.21299,-223.751 z"
             id="path12629" /><path
             sodipodi:nodetypes="ccscccccccccc"
             style="opacity:1;fill:#1f1f1f;fill-opacity:1"
             inkscape:connector-curvature="0"
             d="m 1252.5788,2141.529 c 136.633,-109.495 139.927,-468.282 52.513,-548.227 0,0 -484.45999,-9.85 -538.21299,223.785 -53.753,233.636 166.999,366.746 166.999,366.746 -97.329,234.223 95.14399,404.777 95.14399,404.777 -98.30799,183.373 28.377,253.7264 28.377,253.7264 l 84.674,55.8416 c -7.893,34.606 -15.982,90.055 -6.001,149.516 16.471,98.177 120.23,169.608 120.23,169.608 0,0 60.076,-103.755 54.564,-202.16 -4.893,-87.707 -57.275,-153.659 -68.59,-166.967 73.939,-149.647 -32.197,-299.196 -32.197,-299.196 112.953,-117.811 139.666,-272.807 42.5,-407.45 z"
             id="path12631" /><path
             style="opacity:1;fill:#1f1f1f;fill-opacity:1"
             inkscape:connector-curvature="0"
             d="m 1096.3438,363.90099 c 459.998,308.59 391.045,801.66101 255.199,1137.06201 -149.292,368.67 -548.06799,528.493 -815.82099,491.865 -287.939,-39.369 -403.799,-226.753 -387.095,-313.352 32.189,-167.13 -384.395,-566.492 -409.996,-899.28401 -29.066,-377.444 267.162004,-493.626 491.926,-450.147 138.235,-145.113 612.124,-136.307 865.78699,33.856 z"
             id="path12655" /><path
             style="opacity:1;fill:#0e0e0e;fill-opacity:1"
             inkscape:connector-curvature="0"
             d="m 1305.0918,903.90899 c -207.575,218.46901 -533.77699,68.528 -533.77699,68.528 L 555.74881,1995.078 c 267.199,26.289 650.15499,-134.513 795.79399,-494.115 113.21,-279.495 179.65,-668.48601 -67.489,-968.95401 85.685,113.997 104.603,283.899 21.038,371.9 z"
             id="path12657" /><path
             style="fill:#f9a867"
             inkscape:connector-curvature="0"
             d="m -127.21819,1361.003 c 26.942,-436.35001 -80.531,-756.19301 579.213,-784.96101 440.656,-19.179 620.63599,425.03201 575.00899,850.75001 75.961,-73.551 171.594,38.912 116.341,162.204 -42.663,95.274 -113.898,101.928 -191.29899,130.762 -123.553,289.835 -440.004,432.273 -625.072,431.751 -268.502996,-0.75 -481.753,-322.256 -503.574,-497.181 -12.493,-100.428 43.771,-202.91 49.382,-293.325 z"
             id="path12685" /><path
             style="fill:#1f1f1f;fill-opacity:1"
             inkscape:connector-curvature="0"
             d="m 462.79081,1069.016 c -13.569,29.062 55.873,17.287 159.302,55.84 83.989,31.345 121.825,110.8 135.393,81.771 13.536,-29.062 -36.042,-93.676 -117.421,-131.675 -81.348,-37.966 -163.706,-34.965 -177.274,-5.936 z"
             id="path12696" /><path
             style="fill:#e98948"
             inkscape:connector-curvature="0"
             d="m 1011.3478,1478.914 c 83.528,-7.339 74.265,97.916 43.312,128.576 -30.986,30.627 -85.45699,48.86 -93.41499,28.246 -7.956,-20.613 50.10299,-156.822 50.10299,-156.822 z"
             id="path12698" /><path
             style="fill:#e98948"
             inkscape:connector-curvature="0"
             d="m 204.69181,1659.319 c 5.708,0.489 11.807,0.652 18.07,0.359 5.871,-0.196 10.438,-5.219 10.111,-11.122 -0.094,-5.871 -5.219,-10.535 -11.122,-10.111 -51.143,2.087 -88.849,-29.714 -105.712,-57.569 -9.655,-16.243 -9.752,-26.224 -8.643,-28.018 7.893,-9.785 43.576,-9.655 65.006,-6.034 4.664,0.522 6.654,-0.718 9.198,-2.968 1.663,-1.631 40.315,-41.326 52.546,-132.001 0.848,-5.806 -3.262,-11.22 -9.194,-11.97 l -0.326,-0.033 c -5.745,-0.489 -10.898,3.555 -11.616,9.231 -9.231,67.713 -34.215,104.44 -43.283,115.758 -17.907,-0.946 -62.886,-5.284 -78.932996,14.612 -7.726,9.459 -6.784,25.735 2.74,44.751 13.437996,26.776 51.109996,69.961 111.157996,75.115 z"
             id="path12700" /><path
             style="opacity:1;fill:#0e0e0e;fill-opacity:1"
             inkscape:connector-curvature="0"
             d="m 785.56881,670.40299 c 0,0 -45.892,135.654 -438.829,30.203 -406.571996,-109.103 -426.010996,99.711 -464.239,271.603 -3.131,-7.013 -148.505,-296.293 173.849004,-478.916 412.311996,-233.636 729.218996,177.11 729.218996,177.11 z"
             id="path12711" /><path
             style="fill:#1f1f1f;fill-opacity:1"
             inkscape:connector-curvature="0"
             d="m 72.853814,1062.362 c 15.787,24.854 -41.619,18.918 -116.247,56.721 -60.602004,30.693 -75.704004,100.036 -91.458004,75.182 -15.787,-24.854 11.188,-81.64 68.561004,-118.074 57.341,-36.4 123.39,-38.651 139.144,-13.829 z"
             id="path12722" /><g
             transform="translate(-1034.5892,228.20299)"
             id="g12735"><linearGradient
               id="SVGID_11_"
               gradientUnits="userSpaceOnUse"
               x1="1444.2183"
               y1="1539.7866"
               x2="1428.719"
               y2="1663.7808"
               gradientTransform="matrix(0.9918,-0.1281,0.1281,0.9918,-337.637,211.9705)"><stop
                 offset="0"
                 style="stop-color:#784034"
                 id="stop12738" /><stop
                 offset="0.4648"
                 style="stop-color:#814638"
                 id="stop12740" /><stop
                 offset="1"
                 style="stop-color:#91503F"
                 id="stop12742" /></linearGradient><path
               style="fill:url(#SVGID_11_)"
               inkscape:connector-curvature="0"
               d="m 1101.801,1540.317 c -12.884,21.103 66.832,144.102 180.246,144.493 137.151,0.457 211.289,-124.206 200.428,-128.739 -5.414,-2.251 -102.711,9.426 -196.615,6.067 -93.71,-3.392 -184.059,-21.821 -184.059,-21.821 z"
               id="path12744" /><path
               style="fill:#e7ddd5"
               inkscape:connector-curvature="0"
               d="m 1279.437,1590.613 c 57.406,-0.815 100.098,-19.081 120.875,-30.138 -33.889,1.794 -74.432,3.099 -114.453,1.631 -50.426,-1.794 -99.743,-7.958 -134.676,-13.275 6.132,5.349 51.535,42.891 128.254,41.782 z"
               id="path12746" /><path
               style="fill:#a95643"
               inkscape:connector-curvature="0"
               d="m 1282.046,1684.811 c 75.765,0.228 132.225,-37.673 165.821,-72.475 -103.755,3.066 -174.371,41.26 -209.434,66.115 13.862,3.913 28.377,6.294 43.613,6.36 z"
               id="path12748" /></g><path
             style="opacity:1;fill:#37404c;fill-opacity:1"
             inkscape:connector-curvature="0"
             d="m 717.30081,686.09199 c 0,0 -58.091,29.257 0,159.725 58.091,130.468 130.664,181.12201 174.24,340.94601 43.576,159.791 -9.916,361.364 47.621,372.291 58.352,11.09 55.877,-64.158 105.71199,-149.255 22.082,-80.075 87.185,-367.985 -51.69799,-593.01001 -152.452,-247.074 -275.875,-130.697 -275.875,-130.697 z"
             id="path12802" /><g
             transform="translate(-1034.5892,228.20299)"
             id="g12804"><g
               id="g12806"><path
                 style="fill:#d7cac1"
                 inkscape:connector-curvature="0"
                 d="m 1481.495,1057.422 c -37.901,33.008 -37.803,129.848 -24.822,145.015 34.802,40.543 243.16,41.26 267.818,-27.366 0,0 -23.452,-71.399 -79.977,-93.285 -56.492,-21.852 -163.019,-24.364 -163.019,-24.364 z"
                 id="path12808" /><g
                 id="g12810"><defs
                   id="defs12812"><path
                     inkscape:connector-curvature="0"
                     id="SVGID_16_"
                     d="m 1481.495,1057.422 c -37.901,33.008 -37.803,129.848 -24.822,145.015 34.802,40.543 243.16,41.26 267.818,-27.366 0,0 -23.419,-81.184 -79.944,-103.037 -56.492,-21.885 -163.052,-14.612 -163.052,-14.612 z" /></defs><clipPath
                   id="SVGID_17_"><use
                     height="100%"
                     width="100%"
                     y="0"
                     x="0"
                     style="overflow:visible"
                     xlink:href="#SVGID_16_"
                     overflow="visible"
                     id="use12816" /></clipPath><linearGradient
                   id="SVGID_18_"
                   gradientUnits="userSpaceOnUse"
                   x1="1539.4597"
                   y1="1053.8063"
                   x2="1512.0214"
                   y2="1273.3136"
                   gradientTransform="matrix(1.1115,0.0513,-0.0195,0.9998,-131.1052,-75.0197)"><stop
                     offset="0"
                     style="stop-color:#723B2F"
                     id="stop12819" /><stop
                     offset="0.4393"
                     style="stop-color:#7B4132"
                     id="stop12821" /><stop
                     offset="1"
                     style="stop-color:#8D4C39"
                     id="stop12823" /></linearGradient><path
                   style="fill:url(#SVGID_18_)"
                   inkscape:connector-curvature="0"
                   clip-path="url(#SVGID_17_)"
                   d="m 1670.413,1164.993 c -1.272,71.138 -59.233,126.032 -129.424,122.607 -70.224,-3.425 -126.097,-63.832 -124.793,-134.969 1.272,-71.138 59.233,-126 129.457,-122.607 70.192,3.425 126.065,63.864 124.76,134.969 z"
                   id="path12825" /></g><path
                 style="fill:#5e261b"
                 inkscape:connector-curvature="0"
                 d="m 1729.878,1191.609 c 0,0 -39.503,-92.795 -104.868,-118.987 -92.465,-37.085 -163.835,9.328 -167.158,-2.479 -1.83,-6.393 89.171,-66.963 182.293,-23.745 69.836,32.421 120.421,120.552 89.733,145.211 z"
                 id="path12827" /></g><polygon
               style="fill:#5e261b"
               points="1788.095,1149.924 1712.13,1154.654 1729.878,1191.609 "
               id="polygon12829" /></g><g
             transform="translate(-1034.5892,228.20299)"
             id="g12831"><polygon
               style="fill:#5e261b"
               points="886.076,1100.575 930.496,1110.262 930.79,1160.786 "
               id="polygon12833" /><g
               id="g12835"><path
                 style="fill:#d7cac1"
                 inkscape:connector-curvature="0"
                 d="m 958.09,1036.776 c -36.074,34.052 -37.412,115.171 -26.191,131.936 30.008,44.881 210.151,52.905 235.691,-19.896 0,0 -18.294,-77.792 -68.985,-103.396 -50.655,-25.605 -140.515,-8.644 -140.515,-8.644 z"
                 id="path12837" /><g
                 id="g12839"><defs
                   id="defs12841"><path
                     inkscape:connector-curvature="0"
                     id="SVGID_19_"
                     d="m 961.482,1035.015 c -36.042,34.085 -40.804,116.932 -29.584,133.697 30.008,44.881 210.151,52.905 235.691,-19.896 0,0 -17.874,-88.131 -68.524,-113.735 -50.691,-25.606 -137.583,-0.066 -137.583,-0.066 z" /></defs><clipPath
                   id="SVGID_20_"><use
                     height="100%"
                     width="100%"
                     y="0"
                     x="0"
                     style="overflow:visible"
                     xlink:href="#SVGID_19_"
                     overflow="visible"
                     id="use12845" /></clipPath><linearGradient
                   id="SVGID_21_"
                   gradientUnits="userSpaceOnUse"
                   x1="1087.9486"
                   y1="1063.3875"
                   x2="1058.5172"
                   y2="1298.839"
                   gradientTransform="matrix(1.3404,0.1104,-0.0602,0.9982,-375.3308,-158.0485)"><stop
                     offset="0"
                     style="stop-color:#723B2F"
                     id="stop12848" /><stop
                     offset="0.4393"
                     style="stop-color:#7B4132"
                     id="stop12850" /><stop
                     offset="1"
                     style="stop-color:#8D4C39"
                     id="stop12852" /></linearGradient><path
                   style="fill:url(#SVGID_21_)"
                   inkscape:connector-curvature="0"
                   clip-path="url(#SVGID_20_)"
                   d="m 1134.157,1144.021 c -4.208,76.389 -70.355,132.588 -147.722,125.478 -77.4,-7.078 -136.731,-74.758 -132.523,-151.147 4.208,-76.422 70.388,-132.588 147.755,-125.51 77.4,7.077 136.73,74.757 132.49,151.179 z"
                   id="path12854" /></g><path
                 style="fill:#5e261b"
                 inkscape:connector-curvature="0"
                 d="m 927.724,1158.503 c 0,0 -36.564,-89.371 32.03,-133.273 91.556,-58.58 195.086,40.347 188.494,45.305 -6.621,4.958 -76.422,-62.527 -166.738,-22.799 -54.928,24.201 -53.786,110.767 -53.786,110.767 z"
                 id="path12856" /></g></g><path
             style="opacity:1;fill:#37404c;fill-opacity:1"
             inkscape:connector-curvature="0"
             d="m -99.331186,544.37099 c -164.357004,66.408 -165.466004,196.387 -138.981004,332.759 23.386,87.316 66.506,177.01301 115.921,264.36101 l 1.859,-0.489 c 3.392,-173.71801 12.003,-318.11401 105.483004,-417.69401 61.809,-54.307 167.553996,-74.823 361.787996,-22.701 175.679,47.132 281.974,46.12 345.806,30.562 l 0.946,-0.946 c -371.443,32.911 -481.362,-311.721 -792.821996,-185.852 z"
             id="path12858" /><path
             style="opacity:1;fill:#37404c;fill-opacity:1"
             inkscape:connector-curvature="0"
             d="m 794.92981,981.96099 c 36.303,56.10101 71.333,112.10501 96.612,204.77001 43.576,159.823 -9.916,361.364 47.621,372.323 58.352,11.09 55.877,-64.19 105.71199,-149.255 15.754,-57.112 53.329,-219.904 23.256,-390.263 -117.58499,13.405 -226.78699,-20.28801 -273.20099,-37.57501 z"
             id="path12860" /><radialGradient
             gradientTransform="translate(-1034.5892,228.20299)"
             id="SVGID_2_"
             cx="1814.8063"
             cy="133.3905"
             r="2957.1238"
             gradientUnits="userSpaceOnUse"><stop
               offset="0"
               style="stop-color:#DF7B32"
               id="stop12621" /><stop
               offset="0.1744"
               style="stop-color:#D77631"
               id="stop12623" /><stop
               offset="0.6137"
               style="stop-color:#CA6D2E"
               id="stop12625" /><stop
               offset="1"
               style="stop-color:#C56A2D"
               id="stop12627" /></radialGradient><linearGradient
             id="SVGID_3_"
             gradientUnits="userSpaceOnUse"
             x1="976.19897"
             y1="4310.5249"
             x2="1253.8984"
             y2="2357.9392"
             gradientTransform="matrix(1.0222,0.0469,-0.0714,0.9815,149.15,-21.1884)"><stop
               offset="0"
               style="stop-color:#F9A867"
               id="stop12636" /><stop
               offset="0.3739"
               style="stop-color:#F5A05F"
               id="stop12638" /><stop
               offset="0.9378"
               style="stop-color:#EA8C4B"
               id="stop12640" /><stop
               offset="1"
               style="stop-color:#E98948"
               id="stop12642" /></linearGradient><radialGradient
             id="SVGID_4_"
             cx="1812.5393"
             cy="133.39211"
             r="2958.5457"
             gradientUnits="userSpaceOnUse"><stop
               offset="0"
               style="stop-color:#DF7B32"
               id="stop12647" /><stop
               offset="0.1744"
               style="stop-color:#D77631"
               id="stop12649" /><stop
               offset="0.6137"
               style="stop-color:#CA6D2E"
               id="stop12651" /><stop
               offset="1"
               style="stop-color:#C56A2D"
               id="stop12653" /></radialGradient><linearGradient
             id="SVGID_5_"
             gradientUnits="userSpaceOnUse"
             x1="643.92499"
             y1="4546.8965"
             x2="1510.913"
             y2="4118.8901"
             gradientTransform="translate(53.8984,0)"><stop
               offset="0"
               style="stop-color:#46A2A9"
               id="stop12660" /><stop
               offset="0.299"
               style="stop-color:#4496A2"
               id="stop12662" /><stop
               offset="1"
               style="stop-color:#407E93"
               id="stop12664" /></linearGradient><linearGradient
             id="SVGID_6_"
             gradientUnits="userSpaceOnUse"
             x1="1412.8822"
             y1="2333.3384"
             x2="1412.8822"
             y2="1842.9005"
             gradientTransform="matrix(-0.9961,0.0882,0.0882,0.9961,2852.6152,-119.7021)"><stop
               offset="0"
               style="stop-color:#F9A867"
               id="stop12673" /><stop
               offset="0.4216"
               style="stop-color:#F8A564"
               id="stop12675" /><stop
               offset="0.7062"
               style="stop-color:#F39C5B"
               id="stop12677" /><stop
               offset="0.9496"
               style="stop-color:#EB8D4C"
               id="stop12679" /><stop
               offset="1"
               style="stop-color:#E98948"
               id="stop12681" /></linearGradient><linearGradient
             id="SVGID_7_"
             gradientUnits="userSpaceOnUse"
             x1="2125.8931"
             y1="1147.9182"
             x2="2340.0032"
             y2="1147.9182"
             gradientTransform="matrix(0.9615,-0.4142,0.4482,0.9519,-1014.864,739.0673)"><stop
               offset="0"
               style="stop-color:#DF7B32"
               id="stop12688" /><stop
               offset="0.1744"
               style="stop-color:#D77631"
               id="stop12690" /><stop
               offset="0.6137"
               style="stop-color:#CA6D2E"
               id="stop12692" /><stop
               offset="1"
               style="stop-color:#C56A2D"
               id="stop12694" /></linearGradient><radialGradient
             id="SVGID_8_"
             cx="1814.7878"
             cy="133.39211"
             r="2957.1528"
             gradientUnits="userSpaceOnUse"><stop
               offset="0"
               style="stop-color:#DF7B32"
               id="stop12703" /><stop
               offset="0.1744"
               style="stop-color:#D77631"
               id="stop12705" /><stop
               offset="0.6137"
               style="stop-color:#CA6D2E"
               id="stop12707" /><stop
               offset="1"
               style="stop-color:#C56A2D"
               id="stop12709" /></radialGradient><linearGradient
             id="SVGID_9_"
             gradientUnits="userSpaceOnUse"
             x1="2331.8005"
             y1="1108.61"
             x2="2528.3716"
             y2="1108.61"
             gradientTransform="matrix(-0.9035,-0.3528,-0.2022,0.9254,3421.2917,729.3329)"><stop
               offset="0"
               style="stop-color:#DF7B32"
               id="stop12714" /><stop
               offset="0.1744"
               style="stop-color:#D77631"
               id="stop12716" /><stop
               offset="0.6137"
               style="stop-color:#CA6D2E"
               id="stop12718" /><stop
               offset="1"
               style="stop-color:#C56A2D"
               id="stop12720" /></linearGradient><linearGradient
             id="SVGID_10_"
             gradientUnits="userSpaceOnUse"
             x1="2878.1587"
             y1="4068.8364"
             x2="1435.7977"
             y2="4804.5361"><stop
               offset="0"
               style="stop-color:#5BB7BF"
               id="stop12725" /><stop
               offset="0.3321"
               style="stop-color:#59A9B6"
               id="stop12727" /><stop
               offset="1"
               style="stop-color:#5591A7"
               id="stop12729" /></linearGradient><linearGradient
             id="SVGID_12_"
             gradientUnits="userSpaceOnUse"
             x1="1749.6179"
             y1="3849.6462"
             x2="1982.697"
             y2="2210.7991"
             gradientTransform="matrix(1.0232,0.0107,-0.0367,0.9835,59.2023,26.6633)"><stop
               offset="0"
               style="stop-color:#F9A867"
               id="stop12751" /><stop
               offset="0.4216"
               style="stop-color:#F8A564"
               id="stop12753" /><stop
               offset="0.7062"
               style="stop-color:#F39C5B"
               id="stop12755" /><stop
               offset="0.9496"
               style="stop-color:#EB8D4C"
               id="stop12757" /><stop
               offset="1"
               style="stop-color:#E98948"
               id="stop12759" /></linearGradient><linearGradient
             id="SVGID_13_"
             gradientUnits="userSpaceOnUse"
             x1="897.89227"
             y1="3625.6621"
             x2="1132.2919"
             y2="2822.0059"
             gradientTransform="matrix(1,0,-0.0041,1,10.3836,-1e-4)"><stop
               offset="0"
               style="stop-color:#F9A867"
               id="stop12764" /><stop
               offset="0.4216"
               style="stop-color:#F8A564"
               id="stop12766" /><stop
               offset="0.7062"
               style="stop-color:#F39C5B"
               id="stop12768" /><stop
               offset="0.9496"
               style="stop-color:#EB8D4C"
               id="stop12770" /><stop
               offset="1"
               style="stop-color:#E98948"
               id="stop12772" /></linearGradient><linearGradient
             id="SVGID_14_"
             gradientUnits="userSpaceOnUse"
             x1="1839.1111"
             y1="4931.7461"
             x2="-9.8367996"
             y2="3992.7515"><stop
               offset="0"
               style="stop-color:#5BB7BF"
               id="stop12785" /><stop
               offset="0.3321"
               style="stop-color:#59A9B6"
               id="stop12787" /><stop
               offset="1"
               style="stop-color:#5591A7"
               id="stop12789" /></linearGradient><radialGradient
             id="SVGID_15_"
             cx="1814.8068"
             cy="133.3923"
             r="2957.0813"
             gradientUnits="userSpaceOnUse"><stop
               offset="0"
               style="stop-color:#DF7B32"
               id="stop12794" /><stop
               offset="0.1744"
               style="stop-color:#D77631"
               id="stop12796" /><stop
               offset="0.6137"
               style="stop-color:#CA6D2E"
               id="stop12798" /><stop
               offset="1"
               style="stop-color:#C56A2D"
               id="stop12800" /></radialGradient></g></g></g><g
       transform="translate(-2.1745647e-6,115.06848)"
       id="g11595"><path
         d="m 3509.834,689.476 c 7.096,45.75 49.961,76.591 95.733,68.871 45.779,-7.712 77.134,-51.056 70.038,-96.806 -7.103,-45.75 -49.961,-76.583 -95.74,-68.871 -45.772,7.712 -77.127,51.056 -70.031,96.806 z"
         id="path11597"
         inkscape:connector-curvature="0"
         style="fill:#ec9458" /><path
         d="m 3580.075,718.258 c 21.324,-4.74 35.001,-25.854 30.551,-47.149 -4.342,-20.773 -24.361,-33.762 -45.127,-30.007 5.139,-3.791 11.01,-6.712 17.628,-8.183 25.179,-5.596 49.852,10.256 55.114,35.4 5.255,25.151 -10.894,50.077 -36.074,55.68 -11.959,2.653 -23.658,0.196 -33.363,-5.516 3.719,0.261 7.438,0.63 11.271,-0.225 z"
         id="path11599"
         inkscape:connector-curvature="0"
         style="fill:#d1652f" /></g><path
       d="m 3123.7626,153.07722 c 0,0 369.001,-10.205 421.484,476.01199 l 74.678,-15.25 c 0,0 14.539,-423.28199 -326.23,-472.14799 l -169.932,11.386 z"
       id="path11631"
       style="fill:#c01f1f;fill-opacity:1"
       inkscape:connector-curvature="0" /><g
       transform="translate(-40.612402,121.83722)"
       id="g11633"
       style="fill:#c01f1f;fill-opacity:1"><path
         d="m 3798.837,718.722 c -25.861,113.73 -115.44,190.321 -200.098,171.062 -84.65,-19.258 -132.314,-127.074 -106.46,-240.804 25.854,-113.73 115.44,-190.313 200.091,-171.055 84.658,19.259 132.321,127.067 106.467,240.797 z"
         id="path11635"
         style="fill:#c01f1f;fill-opacity:1"
         inkscape:connector-curvature="0" /><path
         d="m 3805.477,713.532 c -22.012,96.813 -98.262,162.002 -170.323,145.607 -72.053,-16.395 -112.628,-108.163 -90.623,-204.969 22.012,-96.806 98.262,-161.995 170.323,-145.607 72.053,16.395 112.628,108.164 90.623,204.969 z"
         id="path11637"
         style="fill:#c01f1f;fill-opacity:1"
         inkscape:connector-curvature="0" /><path
         d="m 3690.754,660.382 c -30.79,53.331 -78.41,83.491 -106.359,67.357 -27.948,-16.134 -25.644,-72.452 5.146,-125.791 30.79,-53.339 78.41,-83.491 106.359,-67.357 27.949,16.134 25.644,72.452 -5.146,125.791 z"
         id="path11639"
         style="opacity:0.4;fill:#c01f1f;fill-opacity:1"
         inkscape:connector-curvature="0" /><path
         d="m 3625.586,780.026 c 4.566,17.04 -0.681,33.254 -11.727,36.211 -11.047,2.964 -23.701,-8.451 -28.276,-25.484 -4.566,-17.04 0.681,-33.254 11.728,-36.219 11.046,-2.957 23.701,8.452 28.275,25.492 z"
         id="path11641"
         style="opacity:0.4;fill:#c01f1f;fill-opacity:1"
         inkscape:connector-curvature="0" /></g><rect
       x="3598.7747"
       y="993.10345"
       width="35.421001"
       height="51.772999"
       id="rect11647"
       style="fill:#c01f1f;fill-opacity:1" /><path
       d="m 3305.525,2615.52 -2.124,-10.655 c 347.612,-70.923 309.385,-1658.887 308.965,-1674.92 l 10.901,-0.283 c 1.768,65.828 38.784,1613.124 -317.742,1685.858 z"
       id="path11649"
       style="fill:#c01f1f;fill-opacity:1"
       inkscape:connector-curvature="0" /><g
       id="g11651"><g
         id="g11653"><path
           d="m 3948.271,1385.409 c -59.652,19.563 -90.978,228.968 -154,540.208 -21.418,105.808 -81.882,306.725 -81.882,306.725 -22.824,187.922 -11.647,325.737 81.882,340.313 288.141,44.895 498.966,-1300.381 154,-1187.246 z"
           id="path11655"
           inkscape:connector-curvature="0"
           style="fill:#fab276" /><path
           d="m 3794.271,2572.655 c -271.108,-32.95 -386.244,-220.407 -700.978,-321.236 l -26.354,-90.775 c 163.967,0.855 542.738,75.337 645.495,71.698 166.589,56.84 134.458,346.706 81.837,340.313 z"
           id="path11657"
           inkscape:connector-curvature="0"
           style="fill:#fab276" /></g><path
         d="m 3066.939,2160.644 c -89.456,0.855 -174.041,28.579 -208.955,39.241 -34.914,10.662 -63.406,37.197 -89.898,59.601 -26.492,22.396 -57.651,61.877 -44.931,72.778 12.713,10.894 50.86,-32.703 70.843,-49.055 19.983,-16.344 54.455,-35.574 58.094,-33.754 3.631,1.812 -30.514,27.702 -52.085,48.287 -15.047,14.366 -54.716,75.917 -42.698,85.68 13.518,10.988 46.352,-37.574 64.581,-58.318 15.938,-18.135 52.839,-50.121 57.963,-46.018 5.132,4.102 -31.631,40.205 -40.865,53.542 -9.226,13.337 -30.072,51.041 -18.664,63.399 11.416,12.358 41.3,-35.893 53.607,-49.229 12.314,-13.336 38.922,-51.106 45.076,-50.077 6.154,1.022 -20.519,37.958 -26.673,53.346 -6.154,15.388 -7.886,51.563 3.399,52.592 11.285,1.022 19.381,-31.964 28.616,-46.33 9.226,-14.358 35.428,-42.829 35.428,-42.829 0,0 66.755,-10.307 133.517,-62.08 8.682,-30.66 -2.552,-60.863 -26.355,-90.776 z"
         id="path11659"
         inkscape:connector-curvature="0"
         style="fill:#fab276" /><path
         d="m 3763.452,2052.329 -24.76,89.717 292.309,141.12 c 13.728,-38.937 25.129,-79.222 35.719,-119.644 l -303.268,-111.193 z"
         id="path11661"
         inkscape:connector-curvature="0"
         style="fill:#ec9458" /><path
         d="m 3976.307,2414.313 c -145.912,183.181 -381.446,35.044 -560.104,-48.446 -212.711,-99.408 -322.911,-114.448 -322.911,-114.448 314.734,100.828 429.87,288.286 700.978,321.236 66.886,10.416 129.474,-54.578 182.037,-158.342 z"
         id="path11663"
         inkscape:connector-curvature="0"
         style="fill:#ec9458" /></g><path
       d="m 3962.47,1289.147 c 246.696,89.376 213.993,539.904 163.133,895.967 L 3689.608,2025.25 c 0,0 172.795,-772.35 272.862,-736.103 z"
       id="path11665"
       style="fill:#d7b9ca;fill-opacity:1"
       inkscape:connector-curvature="0" /><g
       id="table_14_"><rect
         style="fill:#cb7441"
         id="rect11668"
         height="2437.717"
         width="87.223999"
         y="2562.283"
         x="4426.2539" /><rect
         style="fill:#cb7441"
         id="rect11670"
         height="2437.717"
         width="51.896"
         y="2562.283"
         x="3381.876" /><rect
         style="fill:#b04d26"
         id="rect11672"
         height="2437.717"
         width="51.889"
         y="2562.283"
         x="3329.9871" /><rect
         style="fill:#cb7441"
         id="rect11674"
         height="254.118"
         width="1181.875"
         y="2569.6689"
         x="3331.603" /><rect
         style="fill:#a13e23"
         id="rect11676"
         height="2437.717"
         width="87.216003"
         y="2562.283"
         x="1222.769" /><rect
         style="fill:#a13e23"
         id="rect11678"
         height="2437.717"
         width="87.216003"
         y="2562.283"
         x="1858.405" /><rect
         style="fill:#b04d26"
         id="rect11680"
         height="2437.717"
         width="87.223"
         y="2562.283"
         x="175.144" /><rect
         style="fill:#b04d26"
         id="rect11682"
         height="2437.717"
         width="87.217003"
         y="2562.283"
         x="1349.748" /><rect
         style="fill:#b04d26"
         id="rect11684"
         height="254.118"
         width="3206.7319"
         y="2569.6689"
         x="175.144" /><rect
         style="fill:#b04d26"
         id="rect11686"
         height="2329.583"
         width="1261.887"
         y="2569.5959"
         x="175.078" /><rect
         style="fill:#a13e23"
         id="rect11688"
         height="2329.583"
         width="520.69598"
         y="2569.5891"
         x="1424.926" /><rect
         style="fill:#a13e23"
         id="rect11690"
         height="153.797"
         width="3206.7319"
         y="2562.979"
         x="175.144" /><rect
         style="fill:#b7572b"
         id="rect11692"
         height="147.10699"
         width="1131.6021"
         y="2569.6689"
         x="3381.876" /><rect
         style="fill:#da8150"
         id="rect11694"
         height="166.65601"
         width="1319.6541"
         y="2482.0969"
         x="3349.5061" /><rect
         style="fill:#bf5b33"
         x="0"
         id="rect11696"
         height="166.65601"
         width="3383.5"
         y="2482.0969" /><rect
         style="fill:#f5905f"
         x="0"
         id="rect11698"
         height="34.443001"
         width="4669.1602"
         y="2482.0969" /></g><g
       id="g11700"><g
         id="g11702"><polygon
           style="fill:#33323d"
           id="polygon11704"
           points="3033.714,2439.116 3033.714,2482.576 1131.682,2482.576 1131.682,2409.138 2654.892,2409.138 " /><polygon
           style="fill:#767283"
           id="polygon11706"
           points="3033.714,2439.116 3033.714,2482.576 2374.267,2482.576 2374.267,2409.138 2654.892,2409.138 " /></g><g
         id="g11708"><polygon
           style="fill:#767283"
           id="polygon11710"
           points="1460.673,2429.324 1707.167,2429.324 1707.167,2482.163 1087.287,2482.163 1087.287,2429.324 1331.809,2429.324 1331.809,2207.46 786.078,2207.46 487.957,2207.46 487.957,857.726 2300.866,857.726 2300.866,2207.46 2027.221,2207.46 1460.673,2207.46 " /><g
           id="g11712"><rect
             style="fill:#33323d"
             id="rect11714"
             height="1350.531"
             width="1746.937"
             y="857.72601"
             x="487.957" /><rect
             style="fill:#2d2d38"
             id="rect11716"
             height="442.453"
             width="149.67999"
             y="2011.522"
             x="1263.068" /><rect
             style="fill:#2d2d38"
             id="rect11718"
             height="52.041"
             width="638.73102"
             y="2430.1211"
             x="1018.546" /><g
             id="g11720"><rect
               style="fill:#454551"
               id="rect11722"
               height="49.331001"
               width="214.783"
               y="1743.886"
               x="2020.11" /><rect
               style="fill:#454551"
               id="rect11724"
               height="49.331001"
               width="214.783"
               y="1853.948"
               x="2020.11" /><rect
               style="fill:#454551"
               id="rect11726"
               height="49.331001"
               width="214.783"
               y="1964.01"
               x="2020.11" /><rect
               style="fill:#454551"
               id="rect11728"
               height="49.338001"
               width="214.783"
               y="2074.0659"
               x="2020.11" /></g><g
             id="g11730"><rect
               style="fill:#454551"
               id="rect11732"
               height="49.331001"
               width="179.006"
               y="1743.886"
               x="487.957" /><rect
               style="fill:#454551"
               id="rect11734"
               height="49.331001"
               width="179.006"
               y="1853.948"
               x="487.957" /><rect
               style="fill:#454551"
               id="rect11736"
               height="49.331001"
               width="179.006"
               y="1964.01"
               x="487.957" /><rect
               style="fill:#454551"
               id="rect11738"
               height="49.338001"
               width="179.006"
               y="2074.0659"
               x="487.957" /></g><rect
             style="fill:#2d2d38"
             id="rect11740"
             height="744.974"
             width="1143.308"
             y="1462.746"
             x="766.255" /><rect
             style="fill:#454551"
             id="rect11742"
             height="744.974"
             width="86.593002"
             y="1462.746"
             x="1822.969" /></g></g></g></g></svg>